<svg xmlns="http://www.w3.org/2000/svg" xmlns:xlink="http://www.w3.org/1999/xlink" width="500" zoomAndPan="magnify" viewBox="0 0 375 374.999991" height="500" preserveAspectRatio="xMidYMid meet" version="1.2"><defs/><g id="ba0a7896b2"><g style="fill:#ffffff;fill-opacity:1;"><g transform="translate(13.81348, 211.373864)"><path style="stroke:none" d="M 22.875 -79 L 22.875 -51.5 L 72 -51.5 L 72 -40.75 L 22.875 -40.75 L 22.875 -10.75 L 77 -10.75 L 77 0 L 10.75 0 L 10.75 -89.75 L 76.125 -89.75 L 76.125 -79 Z M 22.875 -79 "/></g></g><g style="fill:#ffffff;fill-opacity:1;"><g transform="translate(97.185271, 211.373864)"><path style="stroke:none" d="M 67.125 -10.75 L 67.125 0 L 9.5 0 L 9.5 -89.75 L 21.625 -89.75 L 21.625 -10.75 Z M 67.125 -10.75 "/></g></g><g style="fill:#ffffff;fill-opacity:1;"><g transform="translate(166.682589, 211.373864)"><path style="stroke:none" d="M 11.375 0 L 11.375 -89.75 L 23.5 -89.75 L 23.5 0 Z M 11.375 0 "/></g></g><g style="fill:#ffffff;fill-opacity:1;"><g transform="translate(201.431256, 211.373864)"><path style="stroke:none" d="M 44.25 -79 L 44.25 0 L 32.125 0 L 32.125 -79 L 1.75 -79 L 1.75 -89.75 L 74.625 -89.75 L 74.625 -79 Z M 44.25 -79 "/></g></g><g style="fill:#ffffff;fill-opacity:1;"><g transform="translate(277.803311, 211.373864)"><path style="stroke:none" d="M 22.875 -79 L 22.875 -51.5 L 72 -51.5 L 72 -40.75 L 22.875 -40.75 L 22.875 -10.75 L 77 -10.75 L 77 0 L 10.75 0 L 10.75 -89.75 L 76.125 -89.75 L 76.125 -79 Z M 22.875 -79 "/></g></g><g style="fill:#ffffff;fill-opacity:1;"><g transform="translate(361.186504, 211.373864)"><path style="stroke:none" d=""/></g></g><g style="fill:#ffffff;fill-opacity:1;"><g transform="translate(23.509831, 261.394486)"><path style="stroke:none" d="M 4.980469 0 L 4.980469 -28.589844 L 2.609375 -28.589844 L 2.609375 0 Z M 4.980469 0 "/></g></g><g style="fill:#ffffff;fill-opacity:1;"><g transform="translate(34.431267, 261.394486)"><path style="stroke:none" d="M 22.367188 -13.292969 C 22.367188 -10.5625 22.367188 -6.828125 22.445312 -2.929688 C 21.242188 -5.058594 19.355469 -7.992188 17.75 -10.441406 L 5.542969 -28.589844 L 2.609375 -28.589844 L 2.609375 0 L 4.980469 0 L 4.980469 -15.296875 C 4.980469 -18.03125 4.980469 -21.765625 4.898438 -25.660156 C 6.101562 -23.53125 7.992188 -20.597656 9.597656 -18.148438 L 21.804688 0 L 24.734375 0 L 24.734375 -28.589844 L 22.367188 -28.589844 Z M 22.367188 -13.292969 "/></g></g><g style="fill:#ffffff;fill-opacity:1;"><g transform="translate(65.106846, 261.394486)"><path style="stroke:none" d="M 12.847656 0.640625 C 19.675781 0.640625 23.328125 -2.691406 23.328125 -7.507812 C 23.328125 -11.523438 21.160156 -14.09375 14.574219 -15.460938 L 11.765625 -16.023438 C 6.304688 -17.1875 4.699219 -18.832031 4.699219 -21.925781 C 4.699219 -24.9375 7.066406 -27.0625 11.886719 -27.0625 C 17.707031 -27.0625 19.917969 -24.613281 20.078125 -20.800781 L 22.527344 -20.800781 C 22.445312 -25.296875 19.675781 -29.230469 11.886719 -29.230469 C 5.824219 -29.230469 2.25 -26.300781 2.25 -21.925781 C 2.25 -17.144531 5.460938 -15.019531 10.722656 -13.933594 L 13.53125 -13.371094 C 19.03125 -12.246094 20.878906 -10.519531 20.878906 -7.507812 C 20.878906 -3.816406 18.148438 -1.527344 12.847656 -1.527344 C 7.386719 -1.527344 3.976562 -3.574219 3.734375 -8.753906 L 1.285156 -8.753906 C 1.527344 -2.25 5.824219 0.640625 12.847656 0.640625 Z M 12.847656 0.640625 "/></g></g><g style="fill:#ffffff;fill-opacity:1;"><g transform="translate(90.562619, 261.394486)"><path style="stroke:none" d="M 0.882812 -28.589844 L 0.882812 -26.421875 L 11.003906 -26.421875 L 11.003906 0 L 13.453125 0 L 13.453125 -26.421875 L 23.609375 -26.421875 L 23.609375 -28.589844 Z M 0.882812 -28.589844 "/></g></g><g style="fill:#ffffff;fill-opacity:1;"><g transform="translate(112.444649, 261.394486)"><path style="stroke:none" d="M 26.382812 0 L 14.738281 -28.589844 L 12.085938 -28.589844 L 0.523438 0 L 3.050781 0 L 6.546875 -8.632812 L 20.359375 -8.632812 L 23.851562 0 Z M 9.355469 -15.660156 C 10.28125 -18.03125 12.125 -22.605469 13.410156 -26.019531 C 14.695312 -22.605469 16.542969 -18.03125 17.507812 -15.660156 L 19.476562 -10.761719 L 7.386719 -10.761719 Z M 9.355469 -15.660156 "/></g></g><g style="fill:#ffffff;fill-opacity:1;"><g transform="translate(142.19671, 261.394486)"><path style="stroke:none" d="M 4.980469 -28.589844 L 2.609375 -28.589844 L 2.609375 0 L 19.714844 0 L 19.714844 -2.167969 L 4.980469 -2.167969 Z M 4.980469 -28.589844 "/></g></g><g style="fill:#ffffff;fill-opacity:1;"><g transform="translate(166.086823, 261.394486)"><path style="stroke:none" d="M 4.980469 -28.589844 L 2.609375 -28.589844 L 2.609375 0 L 19.714844 0 L 19.714844 -2.167969 L 4.980469 -2.167969 Z M 4.980469 -28.589844 "/></g></g><g style="fill:#ffffff;fill-opacity:1;"><g transform="translate(189.976935, 261.394486)"><path style="stroke:none" d=""/></g></g><g style="fill:#ffffff;fill-opacity:1;"><g transform="translate(201.781689, 261.394486)"><path style="stroke:none" d="M 20.4375 -5.621094 C 21.601562 -7.832031 22.285156 -10.359375 22.445312 -12.890625 L 20.15625 -12.890625 C 20.035156 -11.003906 19.59375 -9.113281 18.792969 -7.386719 L 11.523438 -15.460938 C 15.417969 -17.707031 17.707031 -20.15625 17.707031 -23.328125 C 17.707031 -26.863281 14.777344 -29.230469 11.164062 -29.230469 C 6.867188 -29.230469 4.496094 -26.382812 4.496094 -23.089844 C 4.496094 -20.558594 5.660156 -18.671875 8.152344 -15.820312 C 3.933594 -13.371094 1.40625 -11.164062 1.40625 -7.105469 C 1.40625 -3.011719 4.578125 0.640625 9.917969 0.640625 C 14.054688 0.640625 17.105469 -1.085938 19.152344 -3.652344 L 22.445312 0 L 25.496094 0 Z M 11.121094 -27.183594 C 13.53125 -27.183594 15.339844 -25.417969 15.339844 -23.25 C 15.339844 -20.597656 13.53125 -18.953125 10.160156 -16.945312 C 7.949219 -19.433594 6.867188 -21.160156 6.867188 -23.089844 C 6.867188 -25.457031 8.554688 -27.183594 11.121094 -27.183594 Z M 10.078125 -1.527344 C 6.183594 -1.527344 3.816406 -4.296875 3.816406 -7.1875 C 3.816406 -10.601562 6.023438 -12.328125 9.515625 -14.335938 L 17.628906 -5.339844 C 15.941406 -3.09375 13.453125 -1.527344 10.078125 -1.527344 Z M 10.078125 -1.527344 "/></g></g><g style="fill:#ffffff;fill-opacity:1;"><g transform="translate(230.891385, 261.394486)"><path style="stroke:none" d=""/></g></g><g style="fill:#ffffff;fill-opacity:1;"><g transform="translate(242.696139, 261.394486)"><path style="stroke:none" d="M 22.324219 -15.902344 L 4.980469 -15.902344 L 4.980469 -28.589844 L 2.609375 -28.589844 L 2.609375 0 L 4.980469 0 L 4.980469 -13.734375 L 22.324219 -13.734375 L 22.324219 0 L 24.695312 0 L 24.695312 -28.589844 L 22.324219 -28.589844 Z M 22.324219 -15.902344 "/></g></g><g style="fill:#ffffff;fill-opacity:1;"><g transform="translate(272.80957, 261.394486)"><path style="stroke:none" d="M 26.382812 0 L 14.738281 -28.589844 L 12.085938 -28.589844 L 0.523438 0 L 3.050781 0 L 6.546875 -8.632812 L 20.359375 -8.632812 L 23.851562 0 Z M 9.355469 -15.660156 C 10.28125 -18.03125 12.125 -22.605469 13.410156 -26.019531 C 14.695312 -22.605469 16.542969 -18.03125 17.507812 -15.660156 L 19.476562 -10.761719 L 7.386719 -10.761719 Z M 9.355469 -15.660156 "/></g></g><g style="fill:#ffffff;fill-opacity:1;"><g transform="translate(301.356987, 261.394486)"><path style="stroke:none" d="M 13.089844 0.601562 C 19.796875 0.601562 24.011719 -3.09375 24.011719 -10.398438 L 24.011719 -28.589844 L 21.644531 -28.589844 L 21.644531 -10.398438 C 21.644531 -4.214844 18.269531 -1.566406 13.089844 -1.566406 C 7.949219 -1.566406 4.578125 -4.214844 4.578125 -10.398438 L 4.578125 -28.589844 L 2.207031 -28.589844 L 2.207031 -10.398438 C 2.207031 -3.09375 6.382812 0.601562 13.089844 0.601562 Z M 13.089844 0.601562 "/></g></g><g style="fill:#ffffff;fill-opacity:1;"><g transform="translate(330.908348, 261.394486)"><path style="stroke:none" d="M 4.980469 -28.589844 L 2.609375 -28.589844 L 2.609375 0 L 19.714844 0 L 19.714844 -2.167969 L 4.980469 -2.167969 Z M 4.980469 -28.589844 "/></g></g></g></svg>